<svg xmlns="http://www.w3.org/2000/svg" width="1920" height="400" viewBox="0 0 1920 400"><rect width="100%" height="100%" fill="#DDDDDD"/><path fill="#999999" d="M520.85 253.8h26v18.5h-80v-18.5h29.3v-84.3q0-5 .3-10.3l-20.8 17.4q-1.8 1.4-3.55 1.75-1.75.35-3.3.05-1.55-.3-2.75-1.05t-1.8-1.65l-7.8-10.7 44.1-37.5h20.3v126.3Zm71.5-82.7q0 12.1 6.25 18.45t17.75 6.35q6 0 10.7-1.9 4.7-1.9 7.9-5.2 3.2-3.3 4.85-7.8 1.65-4.5 1.65-9.7 0-5.9-1.8-10.55t-5.1-7.85q-3.3-3.2-7.85-4.9-4.55-1.7-9.95-1.7-5.6 0-10.1 1.85t-7.7 5.15q-3.2 3.3-4.9 7.85-1.7 4.55-1.7 9.95Zm-12.1 101.2 44.9-56.1q1.7-2.1 3.2-4.1 1.5-2 2.9-4-5 3.2-11 4.85-6 1.65-12.6 1.65-7.5 0-14.7-2.6-7.2-2.6-12.8-7.85-5.6-5.25-9.05-13-3.45-7.75-3.45-18.15 0-9.7 3.6-18.2t10.1-14.9q6.5-6.4 15.6-10.1 9.1-3.7 20.1-3.7 11.1 0 19.95 3.5t15.1 9.8q6.25 6.3 9.6 15.1 3.35 8.8 3.35 19.3 0 6.7-1.15 12.7-1.15 6-3.25 11.55-2.1 5.55-5.1 10.85-3 5.3-6.7 10.5l-33.1 47.2q-1.7 2.4-5.1 4.05-3.4 1.65-7.7 1.65h-22.7Zm156.1-23h37.1q4 0 6.35 2.25 2.35 2.25 2.35 5.95v14.8h-99.2v-8.2q0-2.5 1.05-5.25t3.35-4.95l43.9-44q5.5-5.6 9.85-10.7t7.25-10.1q2.9-5 4.45-10.15 1.55-5.15 1.55-10.85 0-5.2-1.5-9.15t-4.25-6.65q-2.75-2.7-6.6-4.05-3.85-1.35-8.65-1.35-4.4 0-8.15 1.25t-6.65 3.5q-2.9 2.25-4.9 5.25-2 3-3 6.6-1.7 4.6-4.4 6.1t-7.8.7l-13-2.3q1.5-10.4 5.8-18.25t10.75-13.1q6.45-5.25 14.8-7.9 8.35-2.65 17.95-2.65 10 0 18.3 2.95t14.2 8.35q5.9 5.4 9.2 13 3.3 7.6 3.3 16.9 0 8-2.35 14.8-2.35 6.8-6.3 13-3.95 6.2-9.25 12t-11.1 11.8l-32.6 33.3q4.7-1.4 9.35-2.15 4.65-.75 8.85-.75Zm166-49.3q0 18.9-4.05 32.85-4.05 13.95-11.2 23.05-7.15 9.1-16.9 13.55-9.75 4.45-21.05 4.45t-20.95-4.45q-9.65-4.45-16.75-13.55-7.1-9.1-11.1-23.05-4-13.95-4-32.85 0-19 4-32.9 4-13.9 11.1-23t16.75-13.55q9.65-4.45 20.95-4.45 11.3 0 21.05 4.45t16.9 13.55q7.15 9.1 11.2 23 4.05 13.9 4.05 32.9Zm-25.5 0q0-15.7-2.3-26t-6.15-16.4q-3.85-6.1-8.85-8.55-5-2.45-10.4-2.45-5.3 0-10.25 2.45t-8.75 8.55q-3.8 6.1-6.05 16.4-2.25 10.3-2.25 26t2.25 26q2.25 10.3 6.05 16.4 3.8 6.1 8.75 8.55 4.95 2.45 10.25 2.45 5.4 0 10.4-2.45t8.85-8.55q3.85-6.1 6.15-16.4 2.3-10.3 2.3-26Zm184.3 39.2-13.1 12.9-33.9-33.9-34.2 34.1-13.1-12.9 34.2-34.3-32.6-32.6 13-13 32.6 32.6 32.4-32.4 13.2 13-32.5 32.5 34 34Zm86.6-21.4h44v-47.3q0-6.7.9-14.8l-44.9 62.1Zm65.5 0h18.2v14.3q0 2-1.3 3.45-1.3 1.45-3.7 1.45h-13.2v35.3h-21.5V237h-61q-2.5 0-4.4-1.55-1.9-1.55-2.4-3.85l-2.6-12.5 68.5-91.5h23.4v90.2Zm134.3-17.8q0 18.9-4.05 32.85-4.05 13.95-11.2 23.05-7.15 9.1-16.9 13.55-9.75 4.45-21.05 4.45t-20.95-4.45q-9.65-4.45-16.75-13.55-7.1-9.1-11.1-23.05-4-13.95-4-32.85 0-19 4-32.9 4-13.9 11.1-23t16.75-13.55q9.65-4.45 20.95-4.45 11.3 0 21.05 4.45t16.9 13.55q7.15 9.1 11.2 23 4.05 13.9 4.05 32.9Zm-25.5 0q0-15.7-2.3-26t-6.15-16.4q-3.85-6.1-8.85-8.55-5-2.45-10.4-2.45-5.3 0-10.25 2.45t-8.75 8.55q-3.8 6.1-6.05 16.4-2.25 10.3-2.25 26t2.25 26q2.25 10.3 6.05 16.4 3.8 6.1 8.75 8.55 4.95 2.45 10.25 2.45 5.4 0 10.4-2.45t8.85-8.55q3.85-6.1 6.15-16.4 2.3-10.3 2.3-26Zm141.5 0q0 18.9-4.05 32.85-4.05 13.95-11.2 23.05-7.15 9.1-16.9 13.55-9.75 4.45-21.05 4.45t-20.95-4.45q-9.65-4.45-16.75-13.55-7.1-9.1-11.1-23.05-4-13.95-4-32.85 0-19 4-32.9 4-13.9 11.1-23t16.75-13.55q9.65-4.45 20.95-4.45 11.3 0 21.05 4.45t16.9 13.55q7.15 9.1 11.2 23 4.05 13.9 4.05 32.9Zm-25.5 0q0-15.7-2.3-26t-6.15-16.4q-3.85-6.1-8.85-8.55-5-2.45-10.4-2.45-5.3 0-10.25 2.45t-8.75 8.55q-3.8 6.1-6.05 16.4-2.25 10.3-2.25 26t2.25 26q2.25 10.3 6.05 16.4 3.8 6.1 8.75 8.55 4.95 2.45 10.25 2.45 5.4 0 10.4-2.45t8.85-8.55q3.85-6.1 6.15-16.4 2.3-10.3 2.3-26Z"/></svg>