<svg xmlns="http://www.w3.org/2000/svg" width="1920" height="400" viewBox="0 0 1920 400"><rect width="100%" height="100%" fill="#DDDDDD"/><path fill="#999999" d="M803.855 132.175h10.05q3.7 0 6.45-.93 2.75-.92 4.57-2.65 1.83-1.72 2.73-4.2.9-2.47.9-5.52 0-2.9-.9-5.25t-2.7-4q-1.8-1.65-4.55-2.53-2.75-.87-6.5-.87h-10.05v25.95Zm-13.45-36.35h23.5q7.25 0 12.55 1.7 5.3 1.7 8.75 4.75t5.12 7.3q1.68 4.25 1.68 9.3 0 5.25-1.75 9.62-1.75 4.38-5.25 7.53-3.5 3.15-8.78 4.9-5.27 1.75-12.32 1.75h-10.05v25.45h-13.45v-72.3Zm87.05 59.05v-8.65q-5.35.25-9 .92-3.65.68-5.85 1.73-2.2 1.05-3.15 2.45-.95 1.4-.95 3.05 0 3.25 1.92 4.65 1.93 1.4 5.03 1.4 3.8 0 6.57-1.38 2.78-1.37 5.43-4.17Zm-26.1-26.95-2.2-3.95q8.85-8.1 21.3-8.1 4.5 0 8.05 1.47 3.55 1.48 6 4.1 2.45 2.63 3.72 6.28 1.28 3.65 1.28 8v32.4h-5.6q-1.75 0-2.7-.53-.95-.52-1.5-2.12l-1.1-3.7q-1.95 1.75-3.8 3.07-1.85 1.33-3.85 2.23-2 .9-4.28 1.38-2.27.47-5.02.47-3.25 0-6-.88-2.75-.87-4.75-2.62t-3.1-4.35q-1.1-2.6-1.1-6.05 0-1.95.65-3.88.65-1.92 2.12-3.67 1.48-1.75 3.83-3.3 2.35-1.55 5.77-2.7 3.43-1.15 7.98-1.88 4.55-.72 10.4-.87v-3q0-5.15-2.2-7.63-2.2-2.47-6.35-2.47-3 0-4.98.7-1.97.7-3.47 1.57-1.5.88-2.73 1.58-1.22.7-2.72.7-1.3 0-2.2-.68-.9-.67-1.45-1.57Zm60.65-8 .75 5.8q2.4-4.6 5.7-7.23 3.3-2.62 7.8-2.62 3.55 0 5.7 1.55l-.8 9.25q-.25.9-.73 1.27-.47.38-1.27.38-.75 0-2.23-.25-1.47-.25-2.87-.25-2.05 0-3.65.6t-2.88 1.72q-1.27 1.13-2.25 2.73-.97 1.6-1.82 3.65v31.6h-12.35v-51.3h7.25q1.9 0 2.65.67.75.68 1 2.43Zm53.5 34.95v-8.65q-5.35.25-9 .92-3.65.68-5.85 1.73-2.2 1.05-3.15 2.45-.95 1.4-.95 3.05 0 3.25 1.92 4.65 1.93 1.4 5.03 1.4 3.8 0 6.57-1.38 2.78-1.37 5.43-4.17Zm-26.1-26.95-2.2-3.95q8.85-8.1 21.3-8.1 4.5 0 8.05 1.47 3.55 1.48 6 4.1 2.45 2.63 3.72 6.28 1.28 3.65 1.28 8v32.4h-5.6q-1.75 0-2.7-.53-.95-.52-1.5-2.12l-1.1-3.7q-1.95 1.75-3.8 3.07-1.85 1.33-3.85 2.23-2 .9-4.28 1.38-2.27.47-5.02.47-3.25 0-6-.88-2.75-.87-4.75-2.62t-3.1-4.35q-1.1-2.6-1.1-6.05 0-1.95.65-3.88.65-1.92 2.12-3.67 1.48-1.75 3.83-3.3 2.35-1.55 5.77-2.7 3.43-1.15 7.98-1.88 4.55-.72 10.4-.87v-3q0-5.15-2.2-7.63-2.2-2.47-6.35-2.47-3 0-4.98.7-1.97.7-3.47 1.57-1.5.88-2.73 1.58-1.22.7-2.72.7-1.3 0-2.2-.68-.9-.67-1.45-1.57Zm49.9-34.1h12.35v74.3h-12.35v-74.3Zm24.85 0h12.35v74.3h-12.35v-74.3Zm51.8 61.05v-8.65q-5.35.25-9 .92-3.65.68-5.85 1.73-2.2 1.05-3.15 2.45-.95 1.4-.95 3.05 0 3.25 1.92 4.65 1.93 1.4 5.03 1.4 3.8 0 6.57-1.38 2.78-1.37 5.43-4.17Zm-26.1-26.95-2.2-3.95q8.85-8.1 21.3-8.1 4.5 0 8.05 1.47 3.55 1.48 6 4.1 2.45 2.63 3.72 6.28 1.28 3.65 1.28 8v32.4h-5.6q-1.75 0-2.7-.53-.95-.52-1.5-2.12l-1.1-3.7q-1.95 1.75-3.8 3.07-1.85 1.33-3.85 2.23-2 .9-4.28 1.38-2.27.47-5.02.47-3.25 0-6-.88-2.75-.87-4.75-2.62t-3.1-4.35q-1.1-2.6-1.1-6.05 0-1.95.65-3.88.65-1.92 2.12-3.67 1.48-1.75 3.83-3.3 2.35-1.55 5.77-2.7 3.43-1.15 7.98-1.88 4.55-.72 10.4-.87v-3q0-5.15-2.2-7.63-2.2-2.47-6.35-2.47-3 0-4.98.7-1.97.7-3.47 1.57-1.5.88-2.73 1.58-1.22.7-2.72.7-1.3 0-2.2-.68-.9-.67-1.45-1.57Zm78 13.2 17.55 27h-11.9q-1.35 0-2.18-.7-.82-.7-1.37-1.6l-10.85-17.85q-.25.85-.58 1.6-.32.75-.72 1.4l-9.6 14.85q-.55.85-1.35 1.57-.8.73-2 .73h-11.05l17.6-26.45-16.9-24.85h11.9q1.35 0 2 .37.65.38 1.15 1.23l10.75 17.1q.55-1.7 1.55-3.35l8.65-13.5q1.1-1.85 2.85-1.85h11.35l-16.85 24.3Zm-405.01 136.5h13.6q3.75 0 6.3-.9t4.08-2.4q1.52-1.5 2.2-3.5.67-2 .67-4.25 0-2.35-.75-4.23-.75-1.87-2.35-3.19-1.6-1.33-4.12-2.03-2.53-.7-6.08-.7h-13.55v21.2Zm11.45-51.4h-11.45v20.9h10.7q6.9 0 10.43-2.5 3.52-2.5 3.52-7.95 0-5.65-3.2-8.05-3.2-2.4-10-2.4Zm-24.9-10.4h24.9q7.1 0 12.15 1.35 5.05 1.35 8.28 3.85 3.22 2.5 4.72 6.05 1.5 3.55 1.5 8 0 2.55-.75 4.87-.75 2.33-2.32 4.35-1.58 2.03-4 3.68-2.43 1.65-5.78 2.8 14.9 3.35 14.9 16.1 0 4.6-1.75 8.5-1.75 3.9-5.1 6.72-3.35 2.83-8.25 4.43-4.9 1.6-11.2 1.6h-27.3v-72.3Zm91 59.05v-8.65q-5.34.25-9 .93-3.64.67-5.84 1.72-2.2 1.05-3.16 2.45-.94 1.4-.94 3.05 0 3.25 1.92 4.65 1.93 1.4 5.02 1.4 3.81 0 6.58-1.38 2.78-1.37 5.42-4.17Zm-26.09-26.95-2.2-3.95q8.85-8.1 21.29-8.1 4.5 0 8.06 1.47 3.55 1.48 6 4.1 2.44 2.63 3.72 6.28 1.28 3.65 1.28 8v32.4h-5.6q-1.75 0-2.71-.53-.94-.52-1.5-2.12l-1.09-3.7q-1.95 1.75-3.8 3.07-1.86 1.33-3.86 2.23-2 .9-4.27 1.38-2.27.47-5.02.47-3.25 0-6-.88-2.75-.87-4.75-2.62t-3.1-4.35q-1.11-2.6-1.11-6.05 0-1.95.66-3.87.65-1.93 2.12-3.68 1.47-1.75 3.83-3.3 2.35-1.55 5.77-2.7 3.43-1.15 7.98-1.88 4.55-.72 10.39-.87v-3q0-5.15-2.19-7.63-2.2-2.47-6.35-2.47-3 0-4.98.7-1.98.7-3.48 1.58-1.5.87-2.72 1.57-1.22.7-2.72.7-1.31 0-2.2-.67-.9-.68-1.45-1.58Zm89.75-4.75-3.25 4.5q-.55.7-1.08 1.1-.52.4-1.52.4-.95 0-1.85-.58-.9-.57-2.15-1.3-1.25-.72-2.98-1.29-1.72-.58-4.27-.58-3.25 0-5.7 1.17-2.45 1.18-4.08 3.38-1.62 2.2-2.42 5.32-.8 3.13-.8 7.08 0 4.1.87 7.3.88 3.2 2.53 5.37 1.65 2.18 4 3.3 2.35 1.13 5.3 1.13 2.95 0 4.77-.72 1.83-.73 3.08-1.6 1.25-.88 2.17-1.61.93-.72 2.08-.72 1.5 0 2.25 1.15l3.55 4.5q-2.05 2.4-4.45 4.03-2.4 1.62-4.98 2.59-2.57.98-5.3 1.38-2.72.4-5.42.4-4.76 0-8.95-1.78-4.2-1.77-7.35-5.17-3.15-3.4-4.98-8.33-1.82-4.92-1.82-11.22 0-5.65 1.62-10.47 1.63-4.83 4.78-8.36 3.15-3.52 7.8-5.52 4.64-2 10.7-2 5.75 0 10.07 1.85 4.33 1.85 7.78 5.3Zm8.2-29.35h12.35v42.55h2.3q1.25 0 1.97-.33.73-.32 1.48-1.32l12.75-15.75q.8-1.05 1.77-1.6.98-.55 2.53-.55h11.3l-15.95 19.05q-1.7 2.25-3.7 3.45 1.05.75 1.87 1.75.83 1 1.58 2.15l17.1 24.9h-11.15q-1.45 0-2.5-.47-1.05-.48-1.75-1.73l-13.1-19.45q-.7-1.15-1.45-1.5-.75-.35-2.25-.35h-2.8v23.5h-12.35v-74.3Zm72.2 47.4q2.3 0 4-.63 1.7-.62 2.82-1.72 1.13-1.1 1.7-2.65.58-1.55.58-3.4 0-3.8-2.28-6.03-2.27-2.22-6.82-2.22-4.55 0-6.83 2.22-2.27 2.23-2.27 6.03 0 1.8.57 3.35.58 1.55 1.7 2.67 1.13 1.13 2.85 1.75 1.73.63 3.98.63Zm13.95 29.2q0-1.5-.9-2.45-.9-.95-2.45-1.47-1.55-.53-3.63-.78-2.07-.25-4.4-.38-2.32-.12-4.8-.22-2.47-.1-4.82-.4-2.05 1.15-3.33 2.7-1.27 1.55-1.27 3.6 0 1.35.67 2.52.68 1.18 2.15 2.03 1.48.85 3.83 1.33 2.35.47 5.75.47 3.45 0 5.95-.53 2.5-.52 4.12-1.44 1.63-.93 2.38-2.2.75-1.28.75-2.78Zm-2.45-51.85h14.75v4.6q0 2.2-2.65 2.7l-4.6.85q1.05 2.65 1.05 5.8 0 3.8-1.53 6.88-1.52 3.07-4.22 5.22-2.7 2.15-6.38 3.33-3.67 1.17-7.92 1.17-1.5 0-2.9-.15t-2.75-.4q-2.4 1.45-2.4 3.25 0 1.55 1.42 2.27 1.43.73 3.78 1.03 2.35.3 5.35.38 3 .07 6.15.32 3.15.25 6.15.88 3 .62 5.35 1.97 2.35 1.35 3.77 3.67 1.43 2.33 1.43 5.98 0 3.4-1.68 6.6-1.67 3.2-4.85 5.7-3.17 2.5-7.8 4.03-4.62 1.52-10.52 1.52-5.8 0-10.1-1.12-4.3-1.13-7.15-3-2.85-1.88-4.25-4.33t-1.4-5.1q0-3.6 2.17-6.03 2.18-2.42 5.98-3.87-2.05-1.05-3.25-2.8-1.2-1.75-1.2-4.6 0-1.15.42-2.37.43-1.23 1.25-2.43.83-1.2 2.08-2.27 1.25-1.08 2.95-1.93-3.9-2.1-6.13-5.6-2.22-3.5-2.22-8.2 0-3.8 1.52-6.87 1.53-3.08 4.25-5.25 2.73-2.18 6.45-3.33 3.73-1.15 8.13-1.15 3.3 0 6.2.67 2.9.68 5.3 1.98Zm33.45 1.35.75 5.8q2.4-4.6 5.7-7.22 3.3-2.63 7.8-2.63 3.55 0 5.7 1.55l-.8 9.25q-.25.9-.73 1.27-.47.38-1.27.38-.75 0-2.23-.25-1.47-.25-2.87-.25-2.05 0-3.65.6t-2.88 1.73q-1.27 1.12-2.25 2.72-.97 1.6-1.82 3.65v31.6h-12.35v-51.3h7.25q1.9 0 2.65.68.75.67 1 2.42Zm49.1-3.9q5.7 0 10.37 1.85 4.68 1.85 8 5.25 3.33 3.4 5.13 8.3 1.8 4.9 1.8 10.95 0 6.1-1.8 11t-5.13 8.35q-3.32 3.45-8 5.3-4.67 1.85-10.37 1.85-5.75 0-10.45-1.85-4.7-1.85-8.03-5.3-3.32-3.45-5.15-8.35-1.82-4.9-1.82-11 0-6.05 1.82-10.95 1.83-4.9 5.15-8.3 3.33-3.4 8.03-5.25 4.7-1.85 10.45-1.85Zm0 43.35q6.4 0 9.47-4.3 3.08-4.3 3.08-12.6t-3.08-12.65q-3.07-4.35-9.47-4.35-6.5 0-9.63 4.37-3.12 4.38-3.12 12.63t3.12 12.57q3.13 4.33 9.63 4.33Zm66.6-42.55h12.35v51.3h-7.55q-2.45 0-3.1-2.25l-.85-4.1q-3.15 3.2-6.95 5.18-3.8 1.97-8.95 1.97-4.2 0-7.43-1.42-3.22-1.43-5.42-4.03-2.2-2.6-3.33-6.18-1.12-3.57-1.12-7.87v-32.6h12.35v32.6q0 4.7 2.17 7.28 2.18 2.57 6.53 2.57 3.2 0 6-1.43 2.8-1.42 5.3-3.92v-37.1Zm35.25 2.25.85 4.05q1.55-1.55 3.27-2.87 1.73-1.33 3.65-2.25 1.93-.93 4.13-1.46 2.2-.52 4.8-.52 4.2 0 7.45 1.42 3.25 1.43 5.42 4 2.18 2.58 3.3 6.15 1.13 3.58 1.13 7.88v32.65h-12.35v-32.65q0-4.7-2.15-7.28-2.15-2.57-6.55-2.57-3.2 0-6 1.45t-5.3 3.95v37.1h-12.35v-51.3h7.55q2.4 0 3.15 2.25Zm77.9 33.85v-23q-2.1-2.55-4.58-3.6-2.47-1.05-5.32-1.05-2.8 0-5.05 1.05t-3.85 3.18q-1.6 2.12-2.45 5.4-.85 3.27-.85 7.72 0 4.5.72 7.63.73 3.12 2.08 5.09 1.35 1.98 3.3 2.86 1.95.87 4.35.87 3.85 0 6.55-1.6 2.7-1.6 5.1-4.55Zm0-59.1h12.35v74.3h-7.55q-2.45 0-3.1-2.25l-1.05-4.95q-3.1 3.55-7.13 5.75-4.02 2.2-9.37 2.2-4.2 0-7.7-1.75t-6.03-5.08q-2.52-3.32-3.9-8.22-1.37-4.9-1.37-11.2 0-5.7 1.55-10.6 1.55-4.9 4.45-8.5 2.9-3.6 6.95-5.62 4.05-2.03 9.1-2.03 4.3 0 7.35 1.35t5.45 3.65v-27.05Z"/></svg>