<svg xmlns="http://www.w3.org/2000/svg" width="275" height="150" viewBox="0 0 275 150"><rect width="100%" height="100%" fill="#DDDDDD"/><path fill="#999999" d="M64.435 84.125h6.87q.74 0 1.17.41.44.42.44 1.1v2.74h-18.35v-1.52q0-.46.19-.97t.62-.91l8.12-8.14q1.02-1.04 1.82-1.98.81-.95 1.34-1.87.54-.93.83-1.88.28-.95.28-2.01 0-.96-.27-1.69-.28-.73-.79-1.23t-1.22-.75q-.71-.25-1.6-.25-.82 0-1.51.23-.69.23-1.23.65-.54.42-.91.97-.37.56-.55 1.22-.32.85-.81 1.13-.5.28-1.45.13l-2.4-.43q.28-1.92 1.07-3.37.8-1.45 1.99-2.43 1.19-.97 2.74-1.46 1.54-.49 3.32-.49 1.85 0 3.38.55 1.54.54 2.63 1.54 1.09 1 1.7 2.41.61 1.4.61 3.12 0 1.48-.43 2.74-.44 1.26-1.17 2.41-.73 1.15-1.71 2.22-.98 1.07-2.05 2.18l-6.03 6.16q.87-.26 1.73-.4.86-.13 1.63-.13Zm11.9-22.5h18.48v1.98q0 .89-.18 1.43-.19.55-.37.92l-10.14 20.87q-.32.64-.89 1.1-.57.45-1.54.45h-3.31l10.34-20.44q.36-.63.7-1.16.34-.53.77-1.01h-12.81q-.42 0-.74-.31-.31-.32-.31-.74v-3.09Zm28.19 4.14-.94 5.57q.89-.18 1.7-.27.82-.08 1.57-.08 2.11 0 3.72.63 1.61.63 2.7 1.74 1.1 1.11 1.65 2.6.56 1.49.56 3.21 0 2.12-.75 3.88-.75 1.76-2.09 3.01-1.33 1.25-3.15 1.93-1.82.69-3.97.69-1.26 0-2.38-.26-1.13-.26-2.12-.7-.99-.43-1.83-1-.85-.56-1.51-1.19l1.4-1.94q.45-.63 1.17-.63.46 0 .94.3.48.29 1.1.64.62.35 1.47.65.84.3 2.02.3 1.26 0 2.22-.41.96-.41 1.6-1.14.64-.73.96-1.74.33-1.01.33-2.19 0-2.18-1.27-3.41t-3.75-1.23q-1.9 0-3.9.7l-2.85-.81 2.22-12.99h13.21v1.94q0 .98-.61 1.59-.61.61-2.07.61h-7.35Zm41.46 16.49-2.42 2.38-6.27-6.27-6.33 6.31-2.42-2.39 6.32-6.34-6.03-6.03 2.41-2.41 6.03 6.03 5.99-5.99 2.44 2.4-6.01 6.02 6.29 6.29Zm25.33 2.7h4.81v3.42h-14.8v-3.42h5.42v-15.6q0-.92.05-1.9l-3.84 3.22q-.34.25-.66.32-.32.06-.61.01-.29-.06-.51-.2-.22-.13-.33-.3l-1.45-1.98 8.16-6.94h3.76v23.37Zm15.58-19.19-.95 5.57q.89-.18 1.7-.27.82-.08 1.58-.08 2.11 0 3.71.63 1.61.63 2.71 1.74 1.09 1.11 1.64 2.6.56 1.49.56 3.21 0 2.12-.75 3.88-.75 1.76-2.08 3.01-1.34 1.25-3.16 1.93-1.82.69-3.97.69-1.25 0-2.38-.26t-2.12-.7q-.99-.43-1.83-1-.84-.56-1.51-1.19l1.41-1.94q.44-.63 1.16-.63.46 0 .95.3.48.29 1.1.64.62.35 1.46.65.84.3 2.02.3 1.26 0 2.22-.41.97-.41 1.6-1.14.64-.73.97-1.74.32-1.01.32-2.19 0-2.18-1.27-3.41t-3.74-1.23q-1.91 0-3.91.7l-2.85-.81 2.22-12.99h13.21v1.94q0 .98-.61 1.59-.61.61-2.07.61h-7.34Zm33.54 9.23q0 3.5-.75 6.08t-2.08 4.27q-1.32 1.68-3.12 2.5-1.81.83-3.9.83t-3.87-.83q-1.79-.82-3.1-2.5-1.31-1.69-2.05-4.27-.74-2.58-.74-6.08 0-3.51.74-6.08.74-2.57 2.05-4.26 1.31-1.68 3.1-2.5 1.78-.83 3.87-.83t3.9.83q1.8.82 3.12 2.5 1.33 1.69 2.08 4.26t.75 6.08Zm-4.72 0q0-2.9-.43-4.81-.42-1.9-1.13-3.03-.72-1.13-1.64-1.58-.93-.45-1.93-.45-.98 0-1.89.45-.92.45-1.62 1.58-.7 1.13-1.12 3.03-.42 1.91-.42 4.81 0 2.91.42 4.81.42 1.91 1.12 3.04.7 1.13 1.62 1.58.91.45 1.89.45 1 0 1.93-.45.92-.45 1.64-1.58.71-1.13 1.13-3.04.43-1.9.43-4.81Z"/></svg>